<svg xmlns="http://www.w3.org/2000/svg" xmlns:xlink="http://www.w3.org/1999/xlink" id="Layer_1" x="0px" y="0px" viewBox="0 0 42 42" style="enable-background:new 0 0 42 42;" xml:space="preserve">
<style type="text/css">
	.st0{fill:url(#SVGID_1_);}
	.st1{fill:#FFFFFF;}
</style>
<linearGradient id="SVGID_1_" gradientUnits="userSpaceOnUse" x1="10.502" y1="2.8169" x2="31.498" y2="39.1831">
	<stop offset="6.679894e-02" style="stop-color:#FFCB50"></stop>
	<stop offset="1" style="stop-color:#FD692B"></stop>
</linearGradient>
<path class="st0" d="M21,0C9.4,0,0,9.4,0,21s9.4,21,21,21s21-9.4,21-21S32.6,0,21,0z"></path>
<path class="st1" d="M19.6,25.7l-1.8,1.8c-0.9,0.9-2.4,0.9-3.3,0c-0.9-0.9-0.9-2.4,0-3.3l3.7-3.7c0.9-0.9,2.2-0.9,3.1-0.2  c0.1,0.1,0.1,0.1,0.2,0.2c0.4,0.4,1,0.4,1.4,0l1.2-1.2c-0.2-0.3-0.4-0.6-0.7-0.8c-0.3-0.3-0.7-0.6-1.1-0.9c-1.6-0.9-3.6-0.8-5.2,0.1  c-0.3,0.2-0.6,0.4-0.9,0.7l-3.7,3.7c-2,2-2,5.2,0,7.2c2,2,5.2,2,7.2,0l3.3-3.3C21.9,26.3,20.7,26.2,19.6,25.7z"></path>
<path class="st1" d="M29.5,12.5c-2-2-5.2-2-7.2,0l-3.3,3.3c1.2-0.2,2.3,0,3.4,0.5l1.8-1.8c0.9-0.9,2.4-0.9,3.3,0  c0.9,0.9,0.9,2.4,0,3.3l-3.7,3.7c-0.8,0.8-2.2,0.9-3.1,0.2c-0.1-0.1-0.1-0.1-0.2-0.2c-0.4-0.4-1.1-0.4-1.5,0l-1.2,1.2  c0.2,0.3,0.4,0.6,0.7,0.8c0.4,0.4,0.7,0.6,1.2,0.9c1.6,0.9,3.6,0.8,5.2-0.2c0.3-0.2,0.6-0.4,0.9-0.7l3.7-3.7  C31.5,17.7,31.5,14.5,29.5,12.5z"></path>
</svg>