<svg xmlns="http://www.w3.org/2000/svg" xmlns:xlink="http://www.w3.org/1999/xlink" id="Layer_1" x="0px" y="0px" viewBox="0 0 42 42" style="enable-background:new 0 0 42 42;" xml:space="preserve">
<style type="text/css">
	.st0{fill:url(#SVGID_1_);}
	.st1{fill:#FFFFFF;}
</style>
<linearGradient id="SVGID_1_" gradientUnits="userSpaceOnUse" x1="10.502" y1="2.8169" x2="31.498" y2="39.1831">
	<stop offset="6.679894e-02" style="stop-color:#FFCB50"></stop>
	<stop offset="1" style="stop-color:#FD692B"></stop>
</linearGradient>
<path class="st0" d="M21,0C9.4,0,0,9.4,0,21s9.4,21,21,21s21-9.4,21-21S32.6,0,21,0z"></path>
<path class="st1" d="M21,24c-0.2,0-0.4-0.1-0.5-0.2l-5.3-5.5c-0.5-0.5-0.1-1.3,0.5-1.3h2.8v-1.2c0-4.3,3.5-7.8,7.8-7.8  C26.7,8,27,8.3,27,8.8s-0.3,0.8-0.8,0.8c-1.5,0-2.8,1.2-2.8,2.8V17h2.8c0.7,0,1,0.8,0.5,1.3l-5.2,5.5C21.4,23.9,21.2,24,21,24L21,24  z"></path>
<path class="st1" d="M29,26H13c-1.7,0-3,1.3-3,3s1.3,3,3,3h16c1.7,0,3-1.3,3-3S30.7,26,29,26z M28.5,30H20v-2h8.5  c0.8,0,1.5,0.2,1.5,1S29.3,30,28.5,30z"></path>
</svg>