<svg xmlns="http://www.w3.org/2000/svg" xmlns:xlink="http://www.w3.org/1999/xlink" id="Layer_1" x="0px" y="0px" viewBox="0 0 42 42" style="enable-background:new 0 0 42 42;" xml:space="preserve">
<style type="text/css">
	.st0{fill:url(#SVGID_1_);}
	.st1{fill:#FFFFFF;}
</style>
<linearGradient id="SVGID_1_" gradientUnits="userSpaceOnUse" x1="10.502" y1="2.8169" x2="31.498" y2="39.1831">
	<stop offset="6.679894e-02" style="stop-color:#FFCB50"></stop>
	<stop offset="1" style="stop-color:#FD692B"></stop>
</linearGradient>
<path class="st0" d="M21,0C9.4,0,0,9.4,0,21s9.4,21,21,21s21-9.4,21-21S32.6,0,21,0z"></path>
<path class="st1" d="M26.1,11.2c-0.6,0.6-0.7,1.2-0.8,1.7c-0.1,0.2-0.3,0.5-0.5,0.4c-0.2,0-0.2-0.1-0.4-0.2l-3.3-3.9  c-0.1-0.1-0.2-0.2-0.4-0.2c-0.2,0-0.3,0-0.5,0.2l-3.5,3.5c-0.3,0.3-0.4,0.7-0.3,1.1c0.1,0.4,0.4,0.7,0.8,0.8c0.4,0.1,0.6,0.2,1,0.5  c0.6,0.6,0.5,1.9-0.4,2.7c-0.9,0.9-2.1,1-2.7,0.4c-0.3-0.3-0.5-0.6-0.5-1c-0.1-0.4-0.4-0.7-0.8-0.8c-0.4-0.1-0.8,0-1.1,0.3l-3.5,3.5  C9.1,20.2,9,20.5,9,20.6c0,0.2,0.1,0.2,0.2,0.4l3.9,3.3c0.2,0.2,0.2,0.3,0.2,0.4c0,0.3-0.1,0.5-0.5,0.6c-0.5,0.1-1,0.2-1.6,0.9  c-1.1,1.1-0.9,3,0.4,4.3c1.3,1.3,3.2,1.5,4.3,0.4c0.6-0.6,0.7-1.2,0.8-1.7c0.1-0.2,0.3-0.5,0.5-0.4c0.2,0,0.2,0.1,0.4,0.2l3.3,3.9  c0.1,0.1,0.2,0.2,0.4,0.2s0.3,0,0.5-0.2l3.5-3.5c0.3-0.3,0.4-0.7,0.3-1.1c-0.1-0.4-0.4-0.7-0.8-0.8c-0.4-0.1-0.6-0.2-1-0.5  c-0.6-0.6-0.5-1.9,0.4-2.7s2.1-1,2.7-0.4c0.3,0.3,0.5,0.6,0.5,1c0.1,0.4,0.4,0.7,0.8,0.8c0.4,0.1,0.8,0,1.1-0.3l3.5-3.5  c0.1-0.1,0.2-0.3,0.2-0.5c0-0.2-0.1-0.2-0.2-0.4l-3.9-3.3c-0.2-0.2-0.2-0.3-0.2-0.4c0-0.3,0.1-0.5,0.5-0.6c0.5-0.1,1-0.2,1.6-0.9  c1.1-1.1,0.9-3-0.4-4.3C29,10.2,27.2,10.1,26.1,11.2L26.1,11.2z"></path>
</svg>