<svg xmlns="http://www.w3.org/2000/svg" xmlns:xlink="http://www.w3.org/1999/xlink" id="Layer_1" x="0px" y="0px" viewBox="0 0 42 42" style="enable-background:new 0 0 42 42;" xml:space="preserve">
<style type="text/css">
	.st0{fill:url(#SVGID_1_);}
	.st1{fill:#FFFFFF;}
</style>
<linearGradient id="SVGID_1_" gradientUnits="userSpaceOnUse" x1="10.502" y1="2.8169" x2="31.498" y2="39.1831">
	<stop offset="6.491815e-02" style="stop-color:#4CCAFF"></stop>
	<stop offset="0.9967" style="stop-color:#2D86F6"></stop>
	<stop offset="1" style="stop-color:#2B7FF5"></stop>
</linearGradient>
<path class="st0" d="M21,0C9.4,0,0,9.4,0,21s9.4,21,21,21s21-9.4,21-21S32.6,0,21,0z"></path>
<path class="st1" d="M30.9,12.1h-3.3V11H14.4v1.1h-3.3c-0.7,0-1.1,0.4-1.1,1.1v2.6c0,2.5,1.9,4.6,4.4,4.9v0.1c0,3.2,2.2,5.8,5.2,6.5  l-0.8,2.3h-2.5c-0.4,0-0.9,0.3-1,0.8L14.4,33h13.2l-0.9-2.5c-0.1-0.4-0.5-0.8-1-0.8h-2.5l-0.8-2.3c3-0.7,5.2-3.3,5.2-6.5v-0.1  c2.5-0.3,4.4-2.4,4.4-4.9v-2.6C32,12.5,31.6,12.1,30.9,12.1z M14.4,18.6c-1.2-0.3-2.2-1.4-2.2-2.8v-1.5h2.2V18.6z M23,22h-4  c-0.6,0-1-0.4-1-1c0-0.6,0.4-1,1-1h1v-2.6c-0.4,0.3-1,0.3-1.3-0.1c-0.4-0.4-0.4-1,0-1.4l1.6-1.6c0.3-0.3,0.7-0.4,1.1-0.2  c0.4,0.2,0.6,0.5,0.6,0.9v5h1c0.6,0,1,0.4,1,1C24,21.6,23.5,22,23,22z M29.8,15.8c0,1.3-1,2.5-2.2,2.8v-4.3h2.2V15.8z"></path>
</svg>