<svg xmlns="http://www.w3.org/2000/svg" xmlns:xlink="http://www.w3.org/1999/xlink" id="Layer_1" x="0px" y="0px" viewBox="0 0 42 42" style="enable-background:new 0 0 42 42;" xml:space="preserve">
<style type="text/css">
	.st0{fill:url(#SVGID_1_);}
	.st1{fill:#FFFFFF;}
</style>
<linearGradient id="SVGID_1_" gradientUnits="userSpaceOnUse" x1="10.502" y1="2.8169" x2="31.498" y2="39.1831">
	<stop offset="6.586888e-02" style="stop-color:#1DE6FB"></stop>
	<stop offset="0.9958" style="stop-color:#0DA7ED"></stop>
	<stop offset="0.9981" style="stop-color:#0AA9FA"></stop>
</linearGradient>
<path class="st0" d="M21,0C9.4,0,0,9.4,0,21s9.4,21,21,21s21-9.4,21-21S32.6,0,21,0z"></path>
<g>
	<path class="st1" d="M28.7,23.4L18.6,13.3c-0.2-0.2-0.5-0.2-0.6,0l-1.8,1.8c-0.2,0.2-0.2,0.5,0,0.6l0.6,0.6l-2.8,2.8   C12,21.1,11.9,24,13.6,26l-2.9,2.9c-0.2,0.2-0.2,0.5,0,0.6l1.8,1.8c0.1,0.1,0.2,0.1,0.3,0.1s0.2,0,0.3-0.1l2.9-2.9   c0.9,0.8,2,1.2,3.2,1.2c1.3,0,2.6-0.5,3.6-1.5l2.8-2.8l0.6,0.6c0.2,0.2,0.5,0.2,0.6,0l1.9-1.8c0.1-0.1,0.1-0.2,0.1-0.3   C28.8,23.6,28.8,23.5,28.7,23.4z"></path>
	<path class="st1" d="M26.5,10c-0.7-0.7-1.8-0.7-2.5,0l-3.7,3.7l2.5,2.5l3.7-3.7c0.3-0.3,0.5-0.8,0.5-1.2C27,10.8,26.8,10.3,26.5,10   z"></path>
	<path class="st1" d="M32,15.5c-0.7-0.7-1.8-0.7-2.5,0l-3.7,3.7l2.5,2.5L32,18c0.3-0.3,0.5-0.8,0.5-1.2C32.5,16.3,32.3,15.8,32,15.5   z"></path>
</g>
</svg>