<svg xmlns="http://www.w3.org/2000/svg" xmlns:xlink="http://www.w3.org/1999/xlink" id="Layer_1" x="0px" y="0px" viewBox="0 0 42 42" style="enable-background:new 0 0 42 42;" xml:space="preserve">
<style type="text/css">
	.st0{fill:url(#SVGID_1_);}
	.st1{fill:#FFFFFF;}
</style>
<linearGradient id="SVGID_1_" gradientUnits="userSpaceOnUse" x1="10.502" y1="2.8169" x2="31.498" y2="39.1831">
	<stop offset="6.491815e-02" style="stop-color:#4CCAFF"></stop>
	<stop offset="0.9967" style="stop-color:#2D86F6"></stop>
	<stop offset="1" style="stop-color:#2B7FF5"></stop>
</linearGradient>
<path class="st0" d="M21,0C9.4,0,0,9.4,0,21s9.4,21,21,21s21-9.4,21-21S32.6,0,21,0z"></path>
<path class="st1" d="M18,22.4c0,0.4-0.3,0.6-0.6,0.6h-5.1c-0.4,0-0.6-0.3-0.6-0.6v-9.7c0-0.4,0.3-0.6,0.6-0.6h5.1  c0.4,0,0.6,0.3,0.6,0.6L18,22.4L18,22.4z M18,29.4c0,0.4-0.3,0.6-0.6,0.6h-5.1c-0.4,0-0.6-0.3-0.6-0.6v-3.7c0-0.4,0.3-0.6,0.6-0.6  h5.1c0.4,0,0.6,0.3,0.6,0.6L18,29.4L18,29.4z M30.3,29.4c0,0.4-0.3,0.6-0.6,0.6h-9.1c-0.4,0-0.6-0.3-0.6-0.6v-6.7  c0-0.4,0.3-0.6,0.6-0.6h9.1c0.4,0,0.6,0.3,0.6,0.6L30.3,29.4L30.3,29.4z M30.3,19.4c0,0.4-0.3,0.6-0.6,0.6h-9.1  c-0.4,0-0.6-0.3-0.6-0.6v-6.7c0-0.4,0.3-0.6,0.6-0.6h9.1c0.4,0,0.6,0.3,0.6,0.6L30.3,19.4L30.3,19.4z"></path>
</svg>