<svg xmlns="http://www.w3.org/2000/svg" xmlns:xlink="http://www.w3.org/1999/xlink" id="Layer_1" x="0px" y="0px" viewBox="0 0 42 42" style="enable-background:new 0 0 42 42;" xml:space="preserve">
<style type="text/css">
	.st0{fill:url(#SVGID_1_);}
	.st1{fill:#FFFFFF;}
</style>
<linearGradient id="SVGID_1_" gradientUnits="userSpaceOnUse" x1="10.502" y1="2.8169" x2="31.498" y2="39.1831">
	<stop offset="6.586888e-02" style="stop-color:#1DE6FB"></stop>
	<stop offset="0.9958" style="stop-color:#0DA7ED"></stop>
	<stop offset="0.9981" style="stop-color:#0AA9FA"></stop>
</linearGradient>
<path class="st0" d="M21,0C9.4,0,0,9.4,0,21s9.4,21,21,21s21-9.4,21-21S32.6,0,21,0z"></path>
<path class="st1" d="M12.4,31.4c0.3,0.3,0.7,0.3,0.9,0l12.7-12.7l-2.8-2.8L10.6,28.6c-0.3,0.3-0.3,0.7,0,0.9L12.4,31.4z"></path>
<path class="st1" d="M24.2,15l2.8,2.8l4.4-4.4c0.3-0.3,0.3-0.7,0-0.9l-1.8-1.8c-0.3-0.3-0.7-0.3-0.9,0L24.2,15z"></path>
<path class="st1" d="M11,14c0,0.3,0.2,0.5,0.5,0.5c1.1,0,2.1,0.9,2.1,2.1c0,0.3,0.2,0.5,0.5,0.5s0.5-0.2,0.5-0.5  c0-1.1,0.9-2.1,2.1-2.1c0.3,0,0.5-0.2,0.5-0.5s-0.2-0.5-0.5-0.5c-1.1,0-2.1-0.9-2.1-2.1c0-0.3-0.2-0.5-0.5-0.5s-0.5,0.2-0.5,0.5  c0,1.1-0.9,2.1-2.1,2.1C11.2,13.5,11,13.7,11,14z"></path>
<path class="st1" d="M30,25c0,0.3,0.2,0.5,0.5,0.5c1.1,0,2.1,0.9,2.1,2.1c0,0.3,0.2,0.5,0.5,0.5s0.5-0.2,0.5-0.5  c0-1.1,0.9-2.1,2.1-2.1c0.3,0,0.5-0.2,0.5-0.5s-0.2-0.5-0.5-0.5c-1.1,0-2.1-0.9-2.1-2.1c0-0.3-0.2-0.5-0.5-0.5s-0.5,0.2-0.5,0.5  c0,1.1-0.9,2.1-2.1,2.1C30.2,24.5,30,24.7,30,25z"></path>
<path class="st1" d="M21,30c0,0.3,0.2,0.5,0.5,0.5c1.1,0,2.1,0.9,2.1,2.1c0,0.3,0.2,0.5,0.5,0.5s0.5-0.2,0.5-0.5  c0-1.1,0.9-2.1,2.1-2.1c0.3,0,0.5-0.2,0.5-0.5s-0.2-0.5-0.5-0.5c-1.1,0-2.1-0.9-2.1-2.1c0-0.3-0.2-0.5-0.5-0.5s-0.5,0.2-0.5,0.5  c0,1.1-0.9,2.1-2.1,2.1C21.2,29.5,21,29.7,21,30z"></path>
</svg>