<svg xmlns="http://www.w3.org/2000/svg" xmlns:xlink="http://www.w3.org/1999/xlink" id="Layer_1" x="0px" y="0px" viewBox="0 0 506 187" style="enable-background:new 0 0 506 187;" xml:space="preserve">
<style type="text/css">
	.st0{fill:#222222;}
	.st1{fill:none;}
	.st2{fill:#FCBF1B;}
</style>
<g>
	<path class="st0" d="M57.3,47.7c-2.1-1.7-4.8-3.1-8.1-4.4c-3.3-1.3-7.2-2.4-11.7-3.3c-3.8-0.9-6.9-1.7-9.1-2.6   c-2.2-0.8-3.8-1.8-4.7-2.9c-0.9-1.1-1.4-2.4-1.4-3.9c0-2.8,1.2-5.1,3.6-6.7c2.4-1.7,5.7-2.5,9.8-2.5c3.6,0,7.2,0.6,10.7,1.8   c3.5,1.2,6.9,3.1,10.1,5.6l5.1-11.3c-1.9-1.8-4.2-3.2-7-4.5c-2.8-1.2-5.8-2.2-9.1-2.8c-3.3-0.7-6.6-1-10.1-1c-5.7,0-10.7,1-15,2.9   c-4.3,2-7.6,4.6-10,8C8,23.5,6.8,27.3,6.8,31.6c0,3,0.5,5.6,1.4,7.8c0.9,2.3,2.4,4.2,4.5,5.9c2.1,1.7,4.7,3.2,8,4.5   c3.3,1.3,7.3,2.4,11.9,3.3c3.7,0.8,6.7,1.6,8.9,2.4c2.2,0.8,3.8,1.8,4.9,2.8c1,1.1,1.5,2.4,1.5,3.9c0,2.6-1.2,4.7-3.7,6.2   c-2.5,1.5-6,2.2-10.6,2.2c-4.2,0-8.3-0.6-12.1-1.8s-7.6-3.1-11.1-5.6L5.3,74.7c2.2,1.8,4.9,3.3,7.9,4.5c3,1.2,6.3,2.2,9.8,2.8   c3.5,0.6,7,1,10.7,1c6.3,0,11.6-0.9,16.1-2.7c4.5-1.8,7.9-4.3,10.2-7.6c2.4-3.3,3.5-7.2,3.5-11.7c0-2.8-0.5-5.3-1.5-7.5   C60.9,51.3,59.4,49.4,57.3,47.7z"></path>
	<polygon class="st0" points="77.4,82.1 127.1,82.1 127.1,69.8 92.9,69.8 92.9,51.6 125,51.6 125,39.3 92.9,39.3 92.9,22.3    127.1,22.3 127.1,10 77.4,10  "></polygon>
	<polygon class="st0" points="171.2,62.3 148.7,10 132.2,10 164.7,82.1 177.5,82.1 209.8,10 193.8,10  "></polygon>
	<polygon class="st0" points="217.9,82.1 267.6,82.1 267.6,69.8 233.4,69.8 233.4,51.6 265.4,51.6 265.4,39.3 233.4,39.3    233.4,22.3 267.6,22.3 267.6,10 217.9,10  "></polygon>
	<polygon class="st0" points="328.6,10 328.6,55.9 292.7,10 281,10 281,82.1 295.8,82.1 295.8,36.2 331.7,82.1 343.4,82.1 343.4,10     "></polygon>
</g>
<g>
	<path class="st1" d="M91.7,112.9c-7.6,0-13.6,2.6-17.9,7.7c-4.3,5.1-6.4,12.4-6.4,21.9c0,9.5,2.1,16.9,6.4,22   c4.3,5.2,10.2,7.8,17.9,7.8c7.6,0,13.6-2.6,17.8-7.7c4.2-5.2,6.4-12.5,6.4-22.1c0-9.6-2.1-16.9-6.4-22   C105.2,115.4,99.3,112.9,91.7,112.9z"></path>
	<polygon class="st0" points="19.4,106.6 11.1,106.6 11.1,178.6 55.6,178.6 55.6,171.5 19.4,171.5  "></polygon>
	<path class="st0" d="M109.2,110.2c-4.9-3-10.8-4.5-17.5-4.5c-6.8,0-12.7,1.5-17.5,4.5c-4.9,3-8.6,7.2-11.3,12.7   c-2.6,5.5-3.9,12.1-3.9,19.7c0,7.6,1.3,14.1,4,19.6c2.7,5.5,6.4,9.8,11.3,12.7c4.9,3,10.7,4.5,17.4,4.5c6.7,0,12.6-1.5,17.4-4.5   c4.9-3,8.7-7.2,11.3-12.7c2.7-5.5,4-12.1,4-19.7c0-7.6-1.3-14.1-3.9-19.6C117.9,117.4,114.1,113.2,109.2,110.2z M109.5,164.6   c-4.2,5.2-10.2,7.7-17.8,7.7c-7.6,0-13.6-2.6-17.9-7.8c-4.3-5.2-6.4-12.5-6.4-22c0-9.5,2.1-16.8,6.4-21.9   c4.3-5.1,10.2-7.7,17.9-7.7c7.6,0,13.6,2.5,17.8,7.6c4.2,5.1,6.4,12.4,6.4,22C115.8,152.1,113.7,159.4,109.5,164.6z"></path>
	<path class="st0" d="M170,147.6h17.9v22c-2.2,0.7-4.5,1.3-7,1.8c-3.3,0.6-6.8,1-10.3,1c-8.5,0-15-2.5-19.4-7.6   c-4.5-5.1-6.7-12.5-6.7-22.3c0-9.6,2.2-16.9,6.5-22c4.3-5.1,10.6-7.6,18.8-7.6c4.1,0,7.9,0.7,11.2,2c3.4,1.3,6.8,3.5,10.3,6.4   l3.2-6.4c-3.1-3-6.8-5.3-11-6.8c-4.2-1.5-8.8-2.3-13.8-2.3c-6.9,0-13,1.5-18.1,4.3c-5.1,2.9-9,7.1-11.7,12.6   c-2.7,5.5-4.1,12.1-4.1,19.8c0,7.8,1.4,14.4,4.1,19.9c2.7,5.5,6.7,9.7,11.8,12.6c5.2,2.9,11.3,4.4,18.6,4.4c3.1,0,6.2-0.2,9.4-0.6   c3.1-0.4,6.1-1,8.8-1.7c2.7-0.7,5-1.6,6.9-2.6v-33.4H170V147.6z"></path>
	<rect x="211.5" y="106.6" class="st0" width="8.3" height="72"></rect>
	<path class="st0" d="M277.8,145.4c-2.5-1.4-5.4-2.5-8.6-3.5c-3.2-0.9-6.6-1.8-10.1-2.6c-3.3-0.8-6.2-1.7-8.8-2.7   c-2.6-1-4.6-2.3-6-3.9s-2.1-3.7-2.1-6.4c0-4.2,1.6-7.6,4.8-9.9c3.2-2.4,7.6-3.5,13.1-3.5c4.1,0,7.9,0.7,11.4,2   c3.5,1.3,6.9,3.5,10.2,6.4l3.2-6.4c-2-2-4.3-3.6-6.9-5c-2.6-1.3-5.4-2.4-8.4-3.1s-6.2-1.1-9.5-1.1c-5.3,0-9.9,0.9-13.9,2.6   c-3.9,1.8-6.9,4.2-9.1,7.3c-2.2,3.1-3.2,6.8-3.2,10.9c0,3.4,0.7,6.3,2,8.6c1.3,2.3,3.2,4.2,5.6,5.7c2.4,1.5,5.1,2.7,8.2,3.7   c3.1,1,6.4,1.8,9.8,2.6c3.4,0.8,6.5,1.7,9.3,2.6c2.7,0.9,4.9,2.1,6.5,3.6c1.6,1.5,2.4,3.5,2.4,6c0,4.1-1.6,7.3-4.8,9.6   c-3.2,2.3-7.6,3.4-13.4,3.4c-4.9,0-9.2-0.6-12.9-1.9c-3.7-1.3-7.3-3.4-11-6.5l-3.1,6.4c2.2,2,4.7,3.7,7.5,5.1c2.8,1.4,5.8,2.4,9,3   c3.2,0.6,6.7,1,10.4,1c5.5,0,10.2-0.8,14.2-2.5c4-1.7,7-4,9.2-7.1c2.2-3,3.2-6.6,3.2-10.7c0-3.4-0.7-6.2-2.2-8.3   C282.3,148.5,280.3,146.8,277.8,145.4z"></path>
	<polygon class="st0" points="289.4,113.7 314.5,113.7 314.5,178.6 322.9,178.6 322.9,113.7 347.9,113.7 347.9,106.6 289.4,106.6     "></polygon>
	<rect x="357" y="106.6" class="st0" width="8.3" height="72"></rect>
	<path class="st0" d="M413,113c4,0,7.7,0.6,11,1.9c3.4,1.3,6.8,3.4,10.2,6.4l3.1-6.4c-3-3-6.6-5.3-10.8-6.8   c-4.2-1.5-8.7-2.3-13.7-2.3c-6.9,0-12.8,1.5-17.8,4.5c-5,3-8.8,7.2-11.5,12.6c-2.7,5.5-4,12-4,19.6c0,7.6,1.3,14.2,4,19.7   c2.7,5.5,6.5,9.8,11.5,12.7c5,3,10.9,4.5,17.8,4.5c4.9,0,9.5-0.8,13.7-2.3c4.2-1.5,7.8-3.8,10.8-6.8l-3.1-6.4   c-3.4,3-6.8,5.1-10.2,6.4c-3.4,1.3-7,1.9-11,1.9c-8,0-14.1-2.6-18.4-7.7c-4.3-5.2-6.5-12.5-6.5-22c0-9.4,2.2-16.7,6.5-21.8   C399,115.5,405.1,113,413,113z"></path>
	<path class="st0" d="M496.3,150.7c-1.5-2.2-3.5-4-6-5.4c-2.5-1.4-5.4-2.5-8.6-3.5c-3.2-0.9-6.6-1.8-10.1-2.6   c-3.3-0.8-6.2-1.7-8.8-2.7c-2.6-1-4.6-2.3-6-3.9s-2.1-3.7-2.1-6.4c0-4.2,1.6-7.6,4.8-9.9c3.2-2.4,7.6-3.5,13.1-3.5   c4.1,0,7.9,0.7,11.4,2c3.5,1.3,6.9,3.5,10.2,6.4l3.2-6.4c-2-2-4.3-3.6-6.9-5c-2.6-1.3-5.4-2.4-8.4-3.1s-6.2-1.1-9.5-1.1   c-5.3,0-9.9,0.9-13.9,2.6c-3.9,1.8-6.9,4.2-9.1,7.3c-2.2,3.1-3.2,6.8-3.2,10.9c0,3.4,0.7,6.3,2,8.6c1.3,2.3,3.2,4.2,5.6,5.7   c2.4,1.5,5.1,2.7,8.2,3.7c3.1,1,6.4,1.8,9.8,2.6c3.4,0.8,6.5,1.7,9.3,2.6c2.7,0.9,4.9,2.1,6.5,3.6c1.6,1.5,2.4,3.5,2.4,6   c0,4.1-1.6,7.3-4.8,9.6c-3.2,2.3-7.6,3.4-13.4,3.4c-4.9,0-9.2-0.6-12.9-1.9c-3.7-1.3-7.3-3.4-11-6.5l-3.1,6.4   c2.2,2,4.7,3.7,7.5,5.1c2.8,1.4,5.8,2.4,9,3c3.2,0.6,6.7,1,10.4,1c5.5,0,10.2-0.8,14.2-2.5c4-1.7,7-4,9.2-7.1   c2.2-3,3.2-6.6,3.2-10.7C498.5,155.7,497.8,152.9,496.3,150.7z"></path>
</g>
<polygon class="st2" points="469,82 368,82 398,46 368,10 469,10 499,46 "></polygon>
</svg>