<svg xmlns="http://www.w3.org/2000/svg" xmlns:xlink="http://www.w3.org/1999/xlink" id="Layer_1" x="0px" y="0px" viewBox="0 0 300 300" style="enable-background:new 0 0 300 300;" xml:space="preserve">
<style type="text/css">
	.st0{fill:#12A594;}
	.st1{fill:#FFFFFF;}
</style>
<circle class="st0" cx="150" cy="150" r="150"></circle>
<path class="st1" d="M200.2,85.2c1.3,1.4,2,3.1,2,5.3c0,2-0.6,4.3-1.9,6.7l-70,135.2c-1.7,3.2-4.1,4.8-7.4,4.8c-2.2,0-4.3-0.8-6-2.3  c-1.8-1.6-2.6-3.5-2.6-5.9c0-1.6,0.5-3.2,1.5-4.8L181.6,98h-72.8c-2.5,0-4.5-0.7-5.8-2c-1.3-1.3-2-3.1-2-5.4c0-2.4,0.7-4.3,2-5.6  c1.3-1.3,3.2-2,5.8-2h85.6C197,83.1,198.9,83.8,200.2,85.2z"></path>
</svg>